<svg width="536" height="97" viewBox="0 0 536 97" fill="none" xmlns="http://www.w3.org/2000/svg">
<path d="M22.1931 14.608V54.928C22.1931 58.96 23.1851 62.064 25.1691 64.24C27.1531 66.416 30.0651 67.504 33.9051 67.504C37.7451 67.504 40.6891 66.416 42.7371 64.24C44.7851 62.064 45.8091 58.96 45.8091 54.928V14.608H62.2251V54.832C62.2251 60.848 60.9451 65.936 58.3851 70.096C55.8251 74.256 52.3691 77.392 48.0171 79.504C43.7291 81.616 38.9291 82.672 33.6171 82.672C28.3051 82.672 23.5371 81.648 19.3131 79.6C15.1531 77.488 11.8571 74.352 9.42513 70.192C6.99313 65.968 5.77713 60.848 5.77713 54.832V14.608H22.1931ZM135.001 82H118.585L91.1286 40.432V82H74.7126V14.608H91.1286L118.585 56.368V14.608H135.001V82ZM164.276 14.608V82H147.86V14.608H164.276ZM253.453 14.608V82H237.037V41.584L221.965 82H208.717L193.549 41.488V82H177.133V14.608H196.525L215.437 61.264L234.157 14.608H253.453ZM308.17 70.096H283.018L278.986 82H261.802L286.186 14.608H305.194L329.578 82H312.202L308.17 70.096ZM303.946 57.424L295.594 32.752L287.338 57.424H303.946ZM354.375 69.328H375.879V82H337.959V14.608H354.375V69.328Z" fill="#0B9444"/>
<path d="M396.861 15.28V82H385.917V15.28H396.861ZM467.005 82H456.061L423.133 32.176V82H412.189V15.184H423.133L456.061 64.912V15.184H467.005V82ZM519.105 82L493.281 52.144V82H482.337V15.28H493.281V45.712L519.201 15.28H532.929L503.937 48.688L533.409 82H519.105Z" fill="#E3A413"/>
<path d="M354 69H376V82H338L354 69Z" fill="#E3A413"/>
</svg>
